<svg xmlns="http://www.w3.org/2000/svg" viewBox="0 0 800 600"><filter id="b"><feGaussianBlur stdDeviation="12" /></filter><path fill="#b3926e" d="M0 0h800v600H0z"/><g filter="url(#b)" transform="translate(1.6 1.6) scale(3.125)" fill-opacity=".5"><ellipse fill="#693c0f" rx="1" ry="1" transform="matrix(27.45325 -73.97237 22.77122 8.45105 229 105.6)"/><ellipse fill="#f4f5ee" rx="1" ry="1" transform="matrix(39.35689 -17.00032 10.3205 23.89263 155.3 57.3)"/><ellipse fill="#f8ead0" cx="133" cy="126" rx="65" ry="24"/><ellipse fill="#303752" rx="1" ry="1" transform="matrix(-52.22334 -1.68696 .4623 -14.31173 135.8 171.7)"/><ellipse fill="#f9ffff" rx="1" ry="1" transform="matrix(11.79147 20.42343 -10.77343 6.22004 70.7 83.3)"/><path fill="#710c00" d="M23.7 108.2l22.1-28.4 20.5 16-22.1 28.4z"/><ellipse fill="#dacda1" rx="1" ry="1" transform="matrix(-27.16121 .53011 -2.13882 -109.58611 7.7 119.9)"/><ellipse fill="#80611c" cx="227" cy="5" rx="33" ry="59"/></g></svg>