<svg xmlns="http://www.w3.org/2000/svg" viewBox="0 0 800 600"><filter id="b"><feGaussianBlur stdDeviation="12" /></filter><path fill="#8e7c6b" d="M0 0h800v600H0z"/><g filter="url(#b)" transform="translate(1.6 1.6) scale(3.125)" fill-opacity=".5"><ellipse fill="#fffff3" rx="1" ry="1" transform="matrix(-2.27298 -52.05973 114.75928 -5.0105 113.7 17.6)"/><ellipse fill="#3b1f14" rx="1" ry="1" transform="matrix(-178.45432 -71.46717 9.98665 -24.93677 84.7 107.2)"/><ellipse fill="#21110a" cx="225" cy="98" rx="63" ry="32"/><ellipse fill="#000013" rx="1" ry="1" transform="matrix(-14.63225 -12.95667 29.07951 -32.84014 69.6 189.6)"/><ellipse fill="#fff8e0" cx="50" cy="159" rx="25" ry="15"/><path fill="#feffff" d="M213.6 153.5l44.8-18.2 8.8 27.2-54.9-40.5z"/><ellipse fill="#fff9e9" cx="54" cy="23" rx="40" ry="34"/><ellipse fill="#55311e" rx="1" ry="1" transform="matrix(-44.78852 13.59761 -17.00865 -56.02397 8.7 100.6)"/></g></svg>