<?xml version="1.0" encoding="utf-8"?>
<!-- Generator: Adobe Illustrator 14.0.0, SVG Export Plug-In . SVG Version: 6.00 Build 43363)  -->
<!DOCTYPE svg PUBLIC "-//W3C//DTD SVG 1.1//EN" "http://www.w3.org/Graphics/SVG/1.1/DTD/svg11.dtd">
<svg version="1.1" xmlns="http://www.w3.org/2000/svg" xmlns:xlink="http://www.w3.org/1999/xlink" x="0px" y="0px" width="504px"
	 height="504px" viewBox="0 0 504 504" enable-background="new 0 0 504 504" xml:space="preserve">
<g id="Layer_2">
	<circle cx="252.841" cy="229.342" r="185.241"/>
</g>
<g id="Layer_3">
	<circle fill="#FFFFFF" cx="217.909" cy="182.767" r="47.981"/>
</g>
<g id="Layer_4">
	<path fill="#CB2027" d="M219.895,126.127c0,0,3.407-47.696,48.974-68.563c0,0,88.153-3.833,140.534,92.838
		c0,0-40.031-36.198-142.238,5.536C267.164,155.937,260.351,129.96,219.895,126.127z"/>
	<path fill="#CB2027" d="M108.745,329.688c0,0-8.091-63.453,59.195-118.815c0,0,10.221,24.274,37.476,27.255
		c0,0-6.814,118.389,21.292,164.808C226.708,402.937,159.848,407.62,108.745,329.688z"/>
</g>
<g id="Layer_5">
	<path fill="#243E90" d="M102.783,141.458c0,0,45.567-88.579,159.698-86.024c0,0-38.753,13.202-48.122,70.693
		c0,0-34.495,5.962-45.567,34.92C168.791,161.047,138.129,143.162,102.783,141.458z"/>
	<path fill="#243E90" d="M209.674,238.554c0,0,23.848,5.962,43.438-16.182c0,0,93.264,77.081,150.328,97.947
		c0,0-69.415,97.097-165.232,80.913C238.207,401.232,203.428,358.788,209.674,238.554z"/>
</g>
<g id="Layer_6">
	<path fill="#F6EB13" d="M166.525,166.018c0,0-8.516,24.415-0.567,40.314c0,0-63.028,41.451-61.893,114.7
		c0,0-56.781-70.977-3.407-174.32C100.659,146.712,130.185,146.712,166.525,166.018z"/>
	<path fill="#F6EB13" d="M269.868,160.336c0,0,98.233-42.017,143.657-0.567c0,0,41.452,78.358-7.38,156.149
		c0,0-67-28.959-149.334-97.096C256.812,218.822,279.519,198.946,269.868,160.336z"/>
</g>
</svg>
