<svg xmlns="http://www.w3.org/2000/svg" viewBox="0 0 507 400"><filter id="b"><feGaussianBlur stdDeviation="3" /></filter><path fill="#dadfdf" d="M0 0h507v398H0z"/><g filter="url(#b)" transform="translate(1 1) scale(1.98047)" fill-opacity=".5"><path fill="#eb0000" d="M124.1 111.4l-9.3-3.6 15-39.2 9.4 3.6z"/><ellipse fill="#92cdf8" rx="1" ry="1" transform="rotate(131.6 -12.9 98) scale(66.09633 38.58785)"/><path fill="#e90000" d="M171 37h15v17h-15z"/><path fill="#e00" d="M140.5 32.9l-17-1.6 2.2 9.6 5.8 7z"/><ellipse fill="#de2406" rx="1" ry="1" transform="rotate(85.6 11.7 97.3) scale(9.86163 6.75969)"/><ellipse fill="#f01300" rx="1" ry="1" transform="matrix(-6.58733 -.283 .38988 -9.07506 158.6 161.6)"/><path fill="red" d="M81 173h11v11H81z"/><ellipse fill="#e60000" cx="207" cy="118" rx="7" ry="7"/><path fill="#8fd6ff" d="M76.4 140.3L57 135.8l34.7-150L111-9.9z"/><ellipse fill="#fcf7f4" rx="1" ry="1" transform="matrix(8.86113 -28.98346 65.05092 19.88806 236.6 163.8)"/><ellipse fill="#faf3e7" rx="1" ry="1" transform="rotate(-119.1 28.2 11.4) scale(46.85873 38.79446)"/><ellipse fill="#bde689" rx="1" ry="1" transform="rotate(75.8 -71.8 86.5) scale(10.24727 19.81135)"/><ellipse fill="#fbf5ee" rx="1" ry="1" transform="matrix(-18.23735 -16.52419 28.5619 -31.52308 222.2 24.8)"/><path fill="#f7fffb" d="M124 87l-14-7 4 39z"/><ellipse fill="#95d9ff" rx="1" ry="1" transform="rotate(-167.1 84.7 33) scale(5.79725 54.8866)"/><ellipse fill="#fdfbf8" cx="135" cy="175" rx="22" ry="22"/><path fill="#d92a14" d="M121.6 107.2l1.9-27 9 .6-2 27z"/><ellipse fill="#ffe" rx="1" ry="1" transform="rotate(117.7 69.4 61) scale(46.31139 12.82418)"/><ellipse fill="#ffefb4" rx="1" ry="1" transform="matrix(4.81709 7.6791 -13.50132 8.46936 96.4 130.5)"/><path fill="#d20100" d="M204 114h6v15h-6z"/><ellipse fill="#a8dbff" cx="35" cy="184" rx="38" ry="38"/><path fill="#f5f5f4" d="M212 127.5l7-40.4 65 11.4-7 40.4z"/><path fill="#d01000" d="M100.6 78.4l7.8-7.8 7 7-7.8 7.8z"/><path fill="#e30e00" d="M79.8 174.7l4.5-2.1 6 12.7-4.6 2.1z"/><path fill="#ffe26b" d="M74 8.4l.5-.8 41.5 26-.5.8z"/></g></svg>